<?xml version="1.0" encoding="utf-8"?>
<!-- Generator: Adobe Illustrator 23.0.1, SVG Export Plug-In . SVG Version: 6.00 Build 0)  -->
<svg version="1.1" id="Layer_1" xmlns="http://www.w3.org/2000/svg" xmlns:xlink="http://www.w3.org/1999/xlink" x="0px" y="0px"
	 viewBox="0 0 331 80" style="enable-background:new 0 0 331 80;" xml:space="preserve">
<style type="text/css">
	.st0{fill:#FF5100;}
</style>
<path class="st0" d="M55.6,16.4l12.7,7.8c1,0.6,2.4,0.9,3.7,0.9c1.2,0,2.4-0.2,3.3-0.7l1.1-0.6c0.4-0.2,0.8-0.5,1.2-0.7
	c0.1-0.1,0.2-0.1,0.3-0.2c1.2-0.6,2-1.1,2-1.1c0,0-1.6-1-3.4-2.1L55.9,7.1C54,6,52.4,5,52.4,5c0,0-0.1,1.8-0.1,4l0,1.3
	c0,0,0,0.1,0,0.1C52.2,12.6,53.7,15.3,55.6,16.4 M19.6,54.8c0.4-0.2,0.8-0.4,1.2-0.7l1.1-0.6c1.9-1.1,3.6-3.8,3.6-6L26,32.7
	c0,0,0-0.1,0-0.1c0-2.2-1.5-4.9-3.3-6l-1.1-0.7c-1.9-1.2-3.4-2.1-3.4-2.1c0,0,0,1.8-0.1,4l-0.6,24.2c-0.1,2.2-0.1,4.1-0.1,4.1
	c0,0,0.9-0.4,2-1.1C19.4,54.9,19.5,54.9,19.6,54.8z M82,25.9c-0.1,0-1.6,0.8-3.5,1.9l-1.1,0.6c-2,1.1-3.6,3.7-3.7,6l-0.4,14.9
	c0,0,0,0.1,0,0.1c0,2.2,1.5,4.9,3.3,6l1.1,0.7c0.4,0.3,0.8,0.5,1.2,0.7c0.1,0.1,0.2,0.1,0.3,0.2c1.2,0.7,1.9,1.2,1.9,1.2s0,0,0,0
	c0,0,0-0.9,0.1-2.3c0-0.1,0-0.2,0-0.4c0-0.4,0-0.9,0-1.4L81.9,30c0-0.5,0-1,0-1.5c0-0.1,0-0.2,0-0.3C82,26.8,82,25.9,82,25.9
	C82,25.9,82,25.9,82,25.9z M22.4,21.8c0.4,0.2,0.8,0.5,1.2,0.7l1.1,0.7c1,0.6,2.4,0.9,3.8,0.9c1.2,0,2.3-0.2,3.3-0.7l13.2-7
	c2-1.1,3.6-3.7,3.7-5.9l0.1-1.3c0-0.5,0-0.9,0.1-1.4c0-0.1,0-0.2,0-0.4c0.1-1.3,0.1-2.2,0.1-2.3l0,0c0,0-1.6,0.9-3.6,1.9L23.8,18.5
	c-2,1-3.6,1.9-3.6,1.9l0,0c0,0,0.8,0.5,1.9,1.2C22.2,21.7,22.3,21.8,22.4,21.8z M74.2,58.6c-1-0.6-2.4-0.9-3.7-0.9
	c-1.2,0-2.4,0.2-3.3,0.7l-13.1,7.1c-2,1.1-3.6,3.7-3.7,6l0,1.3c-0.1,2.2-0.1,4-0.1,4c0,0,0.8-0.4,2-1.1c0.1-0.1,0.2-0.1,0.3-0.2
	c0.4-0.2,0.8-0.4,1.2-0.7l21.3-11.5c0.5-0.2,0.9-0.5,1.3-0.7c0.1,0,0.2-0.1,0.3-0.2c1.2-0.6,2-1.1,2-1.1c0,0-1.5-1-3.4-2.1
	L74.2,58.6z M43.5,65l-12.7-7.8c-1-0.6-2.4-0.9-3.7-0.9c-1.2,0-2.4,0.2-3.3,0.7l-1.1,0.6c-2,1-3.6,1.9-3.6,1.9c0,0,0.8,0.5,2,1.2
	c0.1,0.1,0.2,0.1,0.3,0.2c0.4,0.2,0.8,0.5,1.2,0.7l20.7,12.6c0.4,0.3,0.9,0.5,1.3,0.8c0.1,0.1,0.2,0.1,0.3,0.2
	c1.1,0.7,1.9,1.2,2,1.2c0,0,0.1-0.9,0.1-2.3c0-0.1,0-0.2,0-0.3c0-0.4,0-0.9,0-1.4l0-1.3c0,0,0-0.1,0-0.1
	C46.8,68.8,45.3,66.1,43.5,65z M48.7,43.4c0-0.1,0-0.3,0.1-0.4c0-0.2,0-0.3,0.1-0.5c0-0.3,0.1-0.6,0.1-0.8c0-0.3,0-0.5,0-0.7
	c0-0.1,0-0.3,0-0.4c-0.1-2.1-0.7-3.9-1.9-5.5c-1.3-1.6-3.2-2.4-5.7-2.4c-0.2,0-0.5,0-0.7,0c-0.2,0-0.5,0-0.7,0.1
	c-0.2,0-0.5,0.1-0.7,0.1c-0.2,0-0.5,0.1-0.7,0.1l-0.6,3.3c0.4-0.1,0.8-0.2,1.2-0.3c0.4-0.1,0.8-0.1,1.2-0.1c1,0,1.7,0.2,2.4,0.4h0
	c0,0,0.1,0.1,0.1,0.1c0.1,0.1,0.2,0.1,0.3,0.2c0.1,0,0.1,0.1,0.2,0.1c0.1,0.1,0.2,0.2,0.3,0.2c0.1,0.1,0.1,0.1,0.2,0.2
	c0.1,0.1,0.2,0.2,0.2,0.3c0,0.1,0.1,0.1,0.1,0.2c0.1,0.2,0.2,0.4,0.3,0.6c0.1,0.2,0.1,0.4,0.2,0.6c0,0.1,0,0.2,0.1,0.2
	c0,0.1,0.1,0.2,0.1,0.4v0c0.3,1.3,0.4,2.8,0.4,4.6c0,0.9,0,1.7-0.1,2.5c0,0.8-0.1,1.5-0.1,2.1c0,0.5-0.1,0.9-0.1,1.2
	c0,0.3-0.1,0.6-0.1,0.7h4.4c0.3-0.9,0.8-2,1.4-3.2c0.6-1.2,1.2-2.4,2-3.6c0.7-1.1,1.4-2.2,2.2-3.3c0.8-1.1,1.6-2.1,2.4-3
	c0.1-0.1,0.3-0.3,0.4-0.4c0.1-0.1,0.3-0.3,0.4-0.4l0.1,0.1c-0.1,0.3-0.3,0.8-0.5,1.3c0,0.1-0.1,0.2-0.1,0.3
	c-0.2,0.5-0.3,1.1-0.5,1.8c-0.1,0.2-0.1,0.4-0.2,0.6c-0.1,0.4-0.2,0.8-0.3,1.2c-0.1,0.4-0.2,0.8-0.3,1.2c-0.3,1.4-0.6,2.7-0.9,3.9
	c-0.2,1.2-0.4,2.1-0.4,2.6c0,0.8,0.2,1.4,0.5,1.8c0.4,0.4,1,0.6,2,0.6c0.7,0,1.4-0.1,2-0.2c0.6-0.2,1.1-0.3,1.5-0.5
	c0.1-0.1,0.2-0.1,0.3-0.1c0.1,0,0.2-0.1,0.3-0.1l0.3-1.6c-0.1,0-0.1,0.1-0.2,0.1c-0.1,0-0.2,0.1-0.3,0.2c-0.1,0-0.2,0.1-0.2,0.1
	c-0.1,0-0.2,0.1-0.3,0.1c-0.1,0-0.2,0.1-0.3,0.1c-0.1,0-0.2,0-0.3,0c-0.2,0-0.5-0.1-0.6-0.2c-0.2-0.1-0.3-0.3-0.3-0.6
	c0-0.6,0.2-1.6,0.5-3c0.3-1.5,0.7-3,1.2-4.7c0-0.2,0.1-0.4,0.2-0.6c0.1-0.2,0.1-0.4,0.2-0.7c0.4-1.6,0.8-3,1.2-4.2
	c0.4-1.3,0.6-2.1,0.7-2.4h-7.4c-0.6,0.9-1.3,1.7-2,2.7c-0.7,0.9-1.4,2-2.2,3.1c-0.4,0.6-0.7,1.2-1.1,1.8c-0.1,0.2-0.2,0.4-0.3,0.5
	c-0.3,0.4-0.5,0.9-0.7,1.3c-0.2,0.4-0.4,0.8-0.6,1.3L48.6,44c0-0.1,0-0.2,0.1-0.3C48.7,43.6,48.7,43.5,48.7,43.4z M32.2,52.4l2,3
	c2.6-1.5,4.7-3.6,6.3-6.6c1.4-2.6,2.3-5.6,2.7-9.3c0.1-0.5,0.1-1.1,0.1-1.6h-4c-0.1,0.9-0.3,1.8-0.5,2.8c-0.2,1-0.4,2-0.7,3
	c-0.5,1.7-1.2,3.3-2.1,4.9C35.2,50.1,33.9,51.4,32.2,52.4z M70.5,40.9c0-11.7-9.3-21.3-20.8-21.3c-11.5,0-20.8,9.5-20.8,21.3
	c0,3.7,0.9,7.2,2.6,10.3l0.1,0c1.1-0.7,2.1-1.5,2.8-2.5c-1.2-2.4-1.8-5.2-1.8-8c0-10.2,8.1-18.4,18-18.4c9.9,0,18,8.2,18,18.4
	c0,10.2-8.1,18.4-18,18.4c-4.7,0-9-1.9-12.2-4.9c-0.9,0.9-1.9,1.6-2.9,2.3c3.7,3.6,8.8,5.8,14.3,5.8C61.1,62.1,70.5,52.6,70.5,40.9z
	"/>
<g>
	<g>
		<g>
			<path class="st0" d="M107.5,33.2h6.9c0,1.8-0.4,4.6-1.1,8.2c-0.8,3.6-1.8,6.7-3.1,9.3c-2.8,5.7-6.7,9.9-11.5,12.6l-3.4-5.2
				c1.9-1.1,3.6-2.6,5.2-4.6c1.6-2,2.9-4.4,4-7.1c1-2.7,2-6.8,2.9-12.2L107.5,33.2z M116.6,55.3c0.4-3.5,0.6-7.1,0.6-10.9
				c0-5.3-0.6-8.8-1.7-10.7c-1.1-1.9-3.3-2.8-6.4-2.8c-1.1,0-2.5,0.2-4.3,0.6l1-5.6c2.1-0.4,3.7-0.6,5-0.6c4,0,7.2,1.2,9.5,3.8
				c2.3,2.5,3.4,5.9,3.4,10.1c0,1.1-0.2,2.9-0.6,5.4c2-3.9,3.8-6.9,5.3-9.1c1.5-2.2,3.5-5.1,6.1-8.7l0.7-1h12.6
				c-1.7,5.5-3.3,11-4.6,16.4c-1.4,5.4-2,8.6-2,9.7c0,1,0.5,1.4,1.5,1.4c0.7,0,1.6-0.4,2.7-1.1l-0.4,2.7c-2.6,1.2-5,1.8-7.1,1.8
				c-2.9,0-4.3-1.1-4.3-3.4c0-1.8,0.6-5,1.7-9.8c1.1-4.7,2.2-8.6,3.3-11.5c-3.5,3.7-6.6,7.9-9.4,12.5c-2.8,4.6-4.5,8.1-5.2,10.6
				H116.6z"/>
			<path class="st0" d="M169.7,55.3c-2.9,1-5.9,1.5-9,1.5c-4.3,0-7.4-0.9-9.4-2.7c-1.9-1.8-2.9-4-2.9-6.6c0-3.5,1.8-6.7,5.3-9.4
				c3.6-2.7,7.2-4.1,10.9-4.1c1.7,0,3.5,0.6,5.3,1.8c1.8,1.2,2.7,2.5,2.7,3.9c0,2.5-1.6,4.6-4.7,6.4c-3.1,1.7-7,2.8-11.7,3.3
				c0.5,1.4,2.5,2.1,6.1,2.1c3.4,0,6.4-0.7,8.9-2.1L169.7,55.3z M156.1,44.8c3.6-0.4,6.4-1.1,8.3-2.3c1.9-1.1,2.9-2.1,2.9-2.9
				c0-0.6-0.8-0.9-2.2-0.9c-1.6,0-3.2,0.5-4.9,1.6C158.5,41.4,157.1,42.9,156.1,44.8z"/>
			<path class="st0" d="M190.4,55.7c-2.7,0.7-5,1-7,1c-2.1,0-3.9-0.8-5.3-2.3c-1.5-1.5-2.2-2.9-2.2-4.3c0-0.9,0.2-2.3,0.6-4.1
				l1.5-6.4h-4.2l1.2-5.2h4.2l1.6-6.8h7.7l-1.6,6.8h8.3l-1.2,5.2h-8.3l-1.4,6.1c-0.7,2.8-1,4.4-1,4.8c0,0.6,0.5,1,1.6,1
				c2.1,0,4.3-0.3,6.8-1L190.4,55.7z"/>
			<path class="st0" d="M222.3,35L219,49.5c-0.3,1.3-0.4,2-0.5,2.3l-0.1,0.6c0,0.3-0.1,0.4-0.1,0.4V53c0,0.6,0.3,0.9,0.8,0.9
				c0.4,0,0.9-0.1,1.5-0.3l0.6-0.2c0.2,0,0.3-0.1,0.4-0.1l-0.5,2.3c-2.6,0.8-5,1.2-7.2,1.2c-2.2,0-3.3-0.9-3.3-2.7
				c0-0.8,0.2-1.9,0.7-3.3c0.2-0.5,0.4-1.1,0.6-1.9c-3.5,3.6-5.8,5.8-7,6.7c-1.2,0.9-2.2,1.3-3.2,1.3h-0.2c-1.1-0.1-2.5-0.8-4.3-2.1
				c-0.9-0.6-1.6-1.3-2-1.9c-0.4-0.6-0.7-1.7-0.7-3.4c0-2.9,0.7-5.6,2-8.1c1.3-2.5,3.2-4.3,5.6-5.5c2.4-1.2,5.9-1.8,10.4-1.8
				C215.2,34.1,218.4,34.4,222.3,35z M214,39.3l-1,0c-2.8,0.1-5,0.5-6.4,1.4c-1.4,0.9-2.6,2.4-3.4,4.6c-0.9,2.2-1.3,4-1.3,5.4
				c0,0.6,0.2,0.9,0.7,0.9c0.6,0,1.8-0.7,3.5-2.1c1.7-1.4,3.3-3,4.6-4.8c1.3-1.8,2.2-3,2.5-3.6l0.6-1.2
				C213.7,39.8,213.8,39.6,214,39.3z"/>
			<path class="st0" d="M229.4,25.7h7.8c0.1,0.4,0.1,0.7,0.1,1c0,1-0.3,2.9-0.9,5.5l-0.7,3.1l-3.6,15.5c-0.2,0.8-0.3,1.3-0.4,1.7
				l0,0.3l0,0.4c0,0.4,0.3,0.6,0.8,0.6c0.5,0,1.1-0.1,1.9-0.3c0,0,0.2-0.1,0.5-0.1l-0.6,2.3c-2.1,0.7-4.2,1-6.3,1
				c-2.6,0-4-0.9-4-2.8c0-0.7,0.3-2.2,0.8-4.6l3.7-15.8l0.4-1.8c0.4-1.7,0.6-3.1,0.6-4.2C229.7,26.9,229.6,26.3,229.4,25.7z"/>
			<path class="st0" d="M256.5,39.7h-7.1l-2.9,12.5c-0.9,4-1.8,6.8-2.7,8.4c-0.9,1.6-2,2.8-3.5,3.6c-1.4,0.8-3,1.2-4.5,1.2
				c-0.4,0-0.7,0-1-0.1l-1.6-5h0.6c1.2,0,2.1-0.4,2.8-1c0.7-0.7,1.5-3,2.4-7.2l2.8-12.4h-3.9l1-5.2h4.1c0.6-2.3,1.5-4.1,2.5-5.3
				c1.1-1.2,2.5-2.2,4.2-3c1.7-0.9,3.6-1.3,5.5-1.3c0.9,0,1.9,0.1,3,0.3l-1.2,5.2c-0.9-0.2-1.6-0.3-2.1-0.3c-1.2,0-2.1,0.1-2.8,0.3
				l-0.3,0.4c-0.2,0.3-0.4,0.8-0.6,1.5l-0.4,1.2c0,0.1-0.1,0.5-0.3,1h6.9L256.5,39.7z"/>
			<path class="st0" d="M266.8,55.7c-2.2,0.7-4.3,1-6.4,1c-2.6,0-3.9-0.9-3.9-2.8c0-0.5,0.1-1.1,0.2-1.7l2.9-11.8
				c0.5-1.9,0.7-3.3,0.7-4.3c0-0.5,0-1-0.1-1.4l-0.1-0.3h7.5c0.1,0.8,0.2,1.4,0.2,2c0,1.1-0.2,2.6-0.7,4.4l-0.3,1.3l-2.1,8.6
				l-0.3,1.2c-0.1,0.5-0.2,0.8-0.2,1c0,0.5,0.2,0.7,0.7,0.7c0.6,0,1.3-0.2,2.4-0.5L266.8,55.7z M262.1,28.6c0-1.5,0.4-2.6,1.3-3.6
				c0.9-0.9,1.9-1.3,3.2-1.3c0.9,0,1.7,0.3,2.2,0.9c0.6,0.6,0.9,1.4,0.9,2.4c0,1.4-0.4,2.6-1.3,3.6c-0.9,1-1.9,1.5-3.2,1.5
				C263.1,32.2,262.1,31,262.1,28.6z"/>
			<path class="st0" d="M296.8,34.6c-3,4.2-5.9,7.7-8.7,10.5c0.5,2,0.9,3.5,1.2,4.6c0.3,1.1,0.7,2.1,1,2.9c0.3,0.8,0.8,1.2,1.4,1.2
				c0.3,0,1-0.2,2-0.5l-0.3,2.1c-2.7,0.9-4.8,1.3-6.1,1.3c-1.7,0-3-0.6-3.7-1.7c-0.7-1.1-1.3-2.9-1.8-5.3c-1.6,2.6-3.3,4.8-5,6.5
				h-8.7c0.7-0.6,1.5-1.5,2.7-2.8l2.8-3.1c1.1-1.2,2.5-2.9,4.2-5.1c-1.6-4-2.7-7.2-3.4-9.6l-0.3-1.2h7.7c0.5,2.6,1.2,4.9,1.9,6.9
				c1.5-2,3-4.3,4.6-6.9H296.8z"/>
		</g>
	</g>
	<g>
		<path class="st0" d="M308.4,16.4c0.9,0,1.8,0.3,2.7,0.7c0.9,0.5,1.6,1.2,2.1,2.1c0.5,0.9,0.7,1.8,0.7,2.8c0,1-0.2,1.9-0.7,2.8
			c-0.5,0.9-1.2,1.6-2.1,2.1c-0.9,0.5-1.8,0.7-2.7,0.7c0,0,0,0,0,0v-0.9c0,0,0,0,0,0c0.8,0,1.6-0.2,2.3-0.6c0.7-0.4,1.3-1,1.7-1.7
			c0.4-0.7,0.6-1.5,0.6-2.3c0-0.8-0.2-1.6-0.6-2.3c-0.4-0.8-1-1.3-1.7-1.7c-0.8-0.4-1.5-0.6-2.3-0.6c0,0,0,0,0,0L308.4,16.4
			C308.3,16.4,308.3,16.4,308.4,16.4L308.4,16.4z M308.3,22.9c0.2,0.2,0.5,0.7,0.9,1.3l0.5,0.9h1.2l-0.7-1.2c-0.4-0.6-0.6-1-0.9-1.2
			c-0.1-0.1-0.3-0.2-0.5-0.3c0.5,0,0.9-0.2,1.2-0.6c0.3-0.3,0.5-0.7,0.5-1.1c0-0.3-0.1-0.6-0.3-0.9c-0.2-0.3-0.5-0.5-0.8-0.6
			c-0.2-0.1-0.6-0.1-1.2-0.2v0.8c0.3,0,0.5,0.1,0.6,0.1c0.2,0.1,0.3,0.2,0.4,0.3c0.1,0.2,0.1,0.3,0.1,0.5c0,0.3-0.1,0.5-0.3,0.7
			c-0.2,0.1-0.5,0.2-0.9,0.2V22.9z M308.3,27.6c-1,0-1.9-0.3-2.8-0.7c-0.9-0.5-1.6-1.2-2.1-2.1c-0.5-0.9-0.7-1.8-0.7-2.8
			c0-1,0.2-1.9,0.7-2.8c0.5-0.9,1.2-1.6,2.1-2.1c0.9-0.5,1.8-0.7,2.7-0.7v0.9c-0.8,0-1.5,0.2-2.3,0.6c-0.7,0.4-1.3,1-1.7,1.7
			c-0.4,0.8-0.6,1.5-0.6,2.3c0,0.8,0.2,1.6,0.6,2.3c0.4,0.7,1,1.3,1.7,1.7c0.7,0.4,1.5,0.6,2.3,0.6V27.6L308.3,27.6z M308.3,19.1
			c-0.1,0-0.2,0-0.4,0h-2v6h1v-2.6h0.6c0.4,0,0.6,0.1,0.8,0.2c0.1,0,0.1,0,0.1,0.1v-1.2c-0.1,0-0.2,0-0.3,0h-1.2v-1.8h1.1
			c0.1,0,0.3,0,0.4,0V19.1z"/>
		<g>
			<line class="st0" x1="314" y1="20.9" x2="314" y2="20.9"/>
		</g>
	</g>
</g>
</svg>
